<svg xmlns="http://www.w3.org/2000/svg" width="1200" height="630" viewBox="0 0 1200 630" role="img" aria-label="Randy 个人主页 - 个人项目入口">
  <defs>
    <linearGradient id="bg" x1="0%" y1="0%" x2="100%" y2="100%">
      <stop offset="0%" stop-color="#f8efe3"/>
      <stop offset="50%" stop-color="#f5f7ef"/>
      <stop offset="100%" stop-color="#eef6ff"/>
    </linearGradient>
    <linearGradient id="panel" x1="0%" y1="0%" x2="100%" y2="100%">
      <stop offset="0%" stop-color="#ffffff" stop-opacity="0.92"/>
      <stop offset="100%" stop-color="#ffffff" stop-opacity="0.5"/>
    </linearGradient>
  </defs>
  <rect width="1200" height="630" fill="url(#bg)"/>
  <g opacity="0.26" stroke="#171717" stroke-width="1">
    <path d="M0 60h1200M0 110h1200M0 160h1200M0 210h1200M0 260h1200M0 310h1200M0 360h1200M0 410h1200M0 460h1200M0 510h1200M0 560h1200"/>
    <path d="M70 0v630M120 0v630M170 0v630M220 0v630M270 0v630M320 0v630M370 0v630M420 0v630M470 0v630M520 0v630M570 0v630M620 0v630M670 0v630M720 0v630M770 0v630M820 0v630M870 0v630M920 0v630M970 0v630M1020 0v630M1070 0v630M1120 0v630"/>
  </g>
  <rect x="96" y="96" width="1008" height="438" rx="26" fill="url(#panel)" stroke="#ffffff" stroke-width="2"/>
  <rect x="146" y="148" width="72" height="72" rx="12" fill="#171717"/>
  <text x="182" y="195" text-anchor="middle" font-family="Arial, 'PingFang SC', 'Microsoft YaHei', sans-serif" font-size="38" font-weight="800" fill="#ffffff">R</text>
  <text x="244" y="176" font-family="Arial, 'PingFang SC', 'Microsoft YaHei', sans-serif" font-size="34" font-weight="800" fill="#171717">Randy</text>
  <text x="244" y="213" font-family="Arial, 'PingFang SC', 'Microsoft YaHei', sans-serif" font-size="22" fill="#8a8178">qiway.site</text>
  <circle cx="158" cy="286" r="8" fill="#11875d"/>
  <text x="180" y="294" font-family="Arial, 'PingFang SC', 'Microsoft YaHei', sans-serif" font-size="24" font-weight="800" fill="#11875d">个人主页</text>
  <text x="146" y="385" font-family="Arial, 'PingFang SC', 'Microsoft YaHei', sans-serif" font-size="72" font-weight="900" fill="#171717">Randy · 个人项目</text>
  <text x="150" y="455" font-family="Arial, 'PingFang SC', 'Microsoft YaHei', sans-serif" font-size="30" fill="#67615a">这里放的是正在打磨的个人项目。</text>
  <g transform="translate(808 270)">
    <rect x="0" y="0" width="208" height="72" rx="12" fill="#e8f2ff"/>
    <text x="28" y="44" font-family="Arial, 'PingFang SC', 'Microsoft YaHei', sans-serif" font-size="24" font-weight="800" fill="#1769e8">项目入口</text>
    <path d="M158 36h24m-8-10 10 10-10 10" fill="none" stroke="#1769e8" stroke-width="4" stroke-linecap="round" stroke-linejoin="round"/>
  </g>
</svg>
